<svg width="340" height="297" viewBox="0 0 340 297" fill="none" xmlns="http://www.w3.org/2000/svg">
<path d="M14.8451 127.141H133.606C137.688 127.141 141.028 130.481 141.028 134.563V253.324L7.42261 253.175V134.563C7.42261 130.481 10.7627 127.141 14.8451 127.141ZM44.5353 134.563L29.6902 156.831H37.1127L51.9578 134.563H44.5353ZM74.2254 134.563H66.8028L51.9578 156.831H59.3803L74.2254 134.563ZM96.493 134.563H89.0704L74.2254 156.831H81.6479L96.493 134.563ZM118.761 134.563H111.338L96.493 156.831H103.915L118.761 134.563ZM126.183 238.479V164.253H22.2677V238.479H126.183ZM59.3803 171.676L103.915 201.366L59.3803 231.056V171.676Z" fill="#219CE1"/>
<path d="M222.476 129.894C219.074 129.894 216.161 128.682 213.736 126.257C211.312 123.833 210.101 120.921 210.106 117.523V30.9272C210.106 27.5252 211.318 24.6119 213.743 22.1872C216.167 19.7625 219.079 18.5522 222.476 18.5563H309.073C312.475 18.5563 315.388 19.7687 317.813 22.1934C320.237 24.6181 321.448 27.5294 321.443 30.9272V117.523C321.443 120.925 320.231 123.839 317.806 126.263C315.382 128.688 312.47 129.898 309.073 129.894H222.476ZM222.476 117.523H309.073V30.9272H222.476V117.523ZM228.662 105.153H302.887L279.692 74.2253L261.135 98.9671L247.218 80.4108L228.662 105.153Z" fill="#219CE1"/>
<path d="M264.737 163.348C264.181 162.915 263.534 162.614 262.845 162.468C262.155 162.323 261.442 162.336 260.759 162.507L186.533 181.063C185.53 181.314 184.639 181.893 184.002 182.709C183.365 183.524 183.019 184.529 183.019 185.563V249.397C179.149 246.811 174.526 245.593 169.884 245.936C165.243 246.278 160.849 248.162 157.4 251.288C153.952 254.414 151.647 258.603 150.852 263.189C150.057 267.775 150.818 272.495 153.012 276.599C155.207 280.703 158.711 283.957 162.966 285.842C167.222 287.727 171.985 288.136 176.5 287.004C181.014 285.871 185.021 283.263 187.883 279.593C190.745 275.923 192.299 271.401 192.297 266.747V217.022L257.244 200.785V230.841C253.374 228.255 248.751 227.037 244.11 227.379C239.468 227.722 235.074 229.606 231.626 232.732C228.177 235.858 225.873 240.047 225.078 244.633C224.283 249.218 225.043 253.939 227.238 258.043C229.433 262.147 232.936 265.4 237.191 267.285C241.447 269.17 246.21 269.579 250.725 268.447C255.239 267.315 259.246 264.707 262.108 261.037C264.971 257.366 266.524 252.845 266.523 248.191V167.007C266.523 166.301 266.362 165.605 266.052 164.971C265.743 164.337 265.293 163.782 264.737 163.348ZM171.421 278.345C169.128 278.345 166.885 277.665 164.978 276.39C163.071 275.116 161.584 273.305 160.707 271.185C159.829 269.066 159.599 266.734 160.047 264.484C160.494 262.235 161.599 260.168 163.221 258.546C164.843 256.924 166.909 255.82 169.159 255.372C171.409 254.925 173.74 255.154 175.86 256.032C177.979 256.91 179.79 258.397 181.065 260.304C182.339 262.211 183.019 264.453 183.019 266.747C183.019 269.823 181.797 272.773 179.622 274.948C177.447 277.123 174.497 278.345 171.421 278.345ZM192.297 207.454V189.187L257.244 172.951V191.217L192.297 207.454ZM245.647 259.788C243.353 259.788 241.111 259.108 239.203 257.834C237.296 256.56 235.81 254.748 234.932 252.629C234.054 250.51 233.824 248.178 234.272 245.928C234.719 243.678 235.824 241.612 237.446 239.99C239.068 238.368 241.134 237.263 243.384 236.816C245.634 236.368 247.966 236.598 250.085 237.476C252.204 238.354 254.015 239.84 255.29 241.747C256.564 243.655 257.244 245.897 257.244 248.191C257.244 249.714 256.944 251.222 256.362 252.629C255.779 254.036 254.924 255.315 253.848 256.392C252.771 257.469 251.492 258.323 250.085 258.906C248.678 259.488 247.17 259.788 245.647 259.788Z" fill="#219CE1"/>
</svg>
