<svg width="289" height="53" viewBox="0 0 289 53" fill="none" xmlns="http://www.w3.org/2000/svg">
<path d="M2.61973 22.4365H23.5775C24.2979 22.4365 24.8873 23.026 24.8873 23.7464V44.7041L1.30987 44.6779V23.7464C1.30987 23.026 1.8993 22.4365 2.61973 22.4365ZM7.85916 23.7464L5.23945 27.676H6.5493L9.16902 23.7464H7.85916ZM13.0986 23.7464H11.7887L9.16902 27.676H10.4789L13.0986 23.7464ZM17.0282 23.7464H15.7183L13.0986 27.676H14.4085L17.0282 23.7464ZM20.9578 23.7464H19.6479L17.0282 27.676H18.338L20.9578 23.7464ZM22.2676 42.0844V28.9858H3.92959V42.0844H22.2676ZM10.4789 30.2957L18.338 35.5351L10.4789 40.7746V30.2957Z" fill="white"/>
<path d="M39.2606 22.9225C38.6602 22.9225 38.1461 22.7086 37.7182 22.2807C37.2903 21.8528 37.0767 21.3391 37.0775 20.7394V5.45776C37.0775 4.85741 37.2914 4.34329 37.7193 3.9154C38.1472 3.48751 38.6609 3.27393 39.2606 3.27466H54.5423C55.1426 3.27466 55.6567 3.4886 56.0846 3.91649C56.5125 4.34438 56.7261 4.85813 56.7254 5.45776V20.7394C56.7254 21.3398 56.5114 21.8539 56.0835 22.2818C55.6556 22.7097 55.1419 22.9233 54.5423 22.9225H39.2606ZM39.2606 20.7394H54.5423V5.45776H39.2606V20.7394ZM40.3521 18.5564H53.4507L49.3574 13.0986L46.0828 17.4648L43.6268 14.1902L40.3521 18.5564Z" fill="white"/>
<path d="M46.7183 28.8261C46.6202 28.7497 46.506 28.6966 46.3844 28.6709C46.2627 28.6452 46.1369 28.6475 46.0163 28.6777L32.9177 31.9524C32.7406 31.9966 32.5833 32.0988 32.471 32.2427C32.3586 32.3866 32.2976 32.5639 32.2975 32.7465V44.0112C31.6146 43.5549 30.7988 43.3399 29.9796 43.4004C29.1605 43.4609 28.3851 43.7934 27.7766 44.345C27.1681 44.8967 26.7613 45.6358 26.621 46.4451C26.4807 47.2544 26.6149 48.0874 27.0022 48.8116C27.3895 49.5359 28.0078 50.11 28.7588 50.4427C29.5097 50.7754 30.3503 50.8475 31.147 50.6477C31.9437 50.4479 32.6507 49.9876 33.1559 49.34C33.661 48.6923 33.9352 47.8944 33.9348 47.073V38.298L45.3961 35.4327V40.7366C44.7132 40.2803 43.8973 40.0653 43.0782 40.1258C42.2591 40.1862 41.4837 40.5187 40.8752 41.0704C40.2666 41.622 39.8599 42.3612 39.7196 43.1705C39.5793 43.9798 39.7135 44.8127 40.1008 45.537C40.4881 46.2613 41.1064 46.8354 41.8574 47.168C42.6083 47.5007 43.4489 47.5729 44.2456 47.3731C45.0423 47.1733 45.7493 46.713 46.2545 46.0653C46.7596 45.4176 47.0337 44.6197 47.0334 43.7984V29.4718C47.0335 29.3473 47.0051 29.2244 46.9505 29.1125C46.8959 29.0006 46.8164 28.9027 46.7183 28.8261ZM30.2509 49.1197C29.8461 49.1197 29.4504 48.9997 29.1138 48.7748C28.7772 48.5499 28.5149 48.2302 28.36 47.8563C28.2051 47.4823 28.1646 47.0708 28.2435 46.6738C28.3225 46.2767 28.5174 45.9121 28.8037 45.6258C29.0899 45.3396 29.4546 45.1447 29.8516 45.0657C30.2486 44.9867 30.6601 45.0273 31.0341 45.1822C31.4081 45.3371 31.7277 45.5994 31.9526 45.936C32.1775 46.2726 32.2975 46.6683 32.2975 47.073C32.2975 47.6159 32.0819 48.1364 31.6981 48.5202C31.3143 48.9041 30.7937 49.1197 30.2509 49.1197ZM33.9348 36.6095V33.386L45.3961 30.5207V33.7442L33.9348 36.6095ZM43.3495 45.8451C42.9447 45.8451 42.549 45.725 42.2124 45.5001C41.8758 45.2752 41.6135 44.9556 41.4586 44.5816C41.3037 44.2076 41.2632 43.7961 41.3421 43.3991C41.4211 43.0021 41.616 42.6374 41.9023 42.3512C42.1885 42.065 42.5532 41.87 42.9502 41.7911C43.3472 41.7121 43.7587 41.7526 44.1327 41.9075C44.5067 42.0624 44.8263 42.3248 45.0512 42.6613C45.2761 42.9979 45.3961 43.3936 45.3961 43.7984C45.3961 44.0672 45.3432 44.3333 45.2403 44.5816C45.1375 44.8299 44.9867 45.0556 44.7967 45.2456C44.6066 45.4356 44.381 45.5864 44.1327 45.6893C43.8844 45.7921 43.6182 45.8451 43.3495 45.8451Z" fill="white"/>
<path d="M82.5455 22.2273V19.7273H100V22.2273H92.6818V43H89.8636V22.2273H82.5455ZM104.349 43V19.7273H112.213C114.031 19.7273 115.524 20.0379 116.69 20.6591C117.857 21.2727 118.721 22.1174 119.281 23.1932C119.842 24.2689 120.122 25.4924 120.122 26.8636C120.122 28.2348 119.842 29.4508 119.281 30.5114C118.721 31.572 117.861 32.4053 116.702 33.0114C115.543 33.6098 114.062 33.9091 112.259 33.9091H105.895V31.3636H112.168C113.41 31.3636 114.41 31.1818 115.168 30.8182C115.933 30.4545 116.486 29.9394 116.827 29.2727C117.175 28.5985 117.349 27.7955 117.349 26.8636C117.349 25.9318 117.175 25.1174 116.827 24.4205C116.478 23.7235 115.921 23.1856 115.156 22.8068C114.391 22.4205 113.38 22.2273 112.122 22.2273H107.168V43H104.349ZM115.304 32.5455L121.031 43H117.759L112.122 32.5455H115.304ZM125.773 43H122.818L131.364 19.7273H134.273L142.818 43H139.864L132.909 23.4091H132.727L125.773 43ZM126.864 33.9091H138.773V36.4091H126.864V33.9091ZM164.898 19.7273V43H162.17L149.489 24.7273H149.261V43H146.443V19.7273H149.17L161.898 38.0455H162.125V19.7273H164.898ZM183.264 25.5455C183.128 24.3939 182.575 23.5 181.605 22.8636C180.635 22.2273 179.446 21.9091 178.037 21.9091C177.007 21.9091 176.105 22.0758 175.332 22.4091C174.567 22.7424 173.969 23.2008 173.537 23.7841C173.113 24.3674 172.901 25.0303 172.901 25.7727C172.901 26.3939 173.048 26.928 173.344 27.375C173.647 27.8144 174.033 28.1818 174.503 28.4773C174.973 28.7652 175.465 29.0038 175.98 29.1932C176.495 29.375 176.969 29.5227 177.401 29.6364L179.764 30.2727C180.37 30.4318 181.045 30.6515 181.787 30.9318C182.537 31.2121 183.253 31.5947 183.935 32.0795C184.624 32.5568 185.192 33.1705 185.639 33.9205C186.086 34.6705 186.31 35.5909 186.31 36.6818C186.31 37.9394 185.98 39.0758 185.321 40.0909C184.67 41.1061 183.715 41.9129 182.457 42.5114C181.207 43.1098 179.688 43.4091 177.901 43.4091C176.234 43.4091 174.791 43.1402 173.571 42.6023C172.359 42.0644 171.404 41.3144 170.707 40.3523C170.018 39.3902 169.628 38.2727 169.537 37H172.446C172.522 37.8788 172.817 38.6061 173.332 39.1818C173.855 39.75 174.514 40.1742 175.31 40.4545C176.113 40.7273 176.976 40.8636 177.901 40.8636C178.976 40.8636 179.942 40.6894 180.798 40.3409C181.654 39.9848 182.332 39.4924 182.832 38.8636C183.332 38.2273 183.582 37.4848 183.582 36.6364C183.582 35.8636 183.366 35.2348 182.935 34.75C182.503 34.2652 181.935 33.8712 181.23 33.5682C180.526 33.2652 179.764 33 178.946 32.7727L176.082 31.9545C174.264 31.4318 172.825 30.6856 171.764 29.7159C170.704 28.7462 170.173 27.4773 170.173 25.9091C170.173 24.6061 170.526 23.4697 171.23 22.5C171.942 21.5227 172.897 20.7652 174.094 20.2273C175.298 19.6818 176.643 19.4091 178.128 19.4091C179.628 19.4091 180.961 19.678 182.128 20.2159C183.295 20.7462 184.219 21.4735 184.901 22.3977C185.59 23.322 185.954 24.3712 185.991 25.5455H183.264ZM190.943 19.7273H194.307L202.216 39.0455H202.489L210.398 19.7273H213.761V43H211.125V25.3182H210.898L203.625 43H201.08L193.807 25.3182H193.58V43H190.943V19.7273ZM219.412 43V19.7273H233.457V22.2273H222.23V30.0909H232.73V32.5909H222.23V40.5H233.639V43H219.412ZM245.719 43H238.537V19.7273H246.037C248.295 19.7273 250.226 20.1932 251.832 21.125C253.438 22.0492 254.67 23.3788 255.526 25.1136C256.382 26.8409 256.81 28.9091 256.81 31.3182C256.81 33.7424 256.378 35.8295 255.514 37.5795C254.651 39.322 253.393 40.6629 251.741 41.6023C250.09 42.5341 248.082 43 245.719 43ZM241.355 40.5H245.537C247.461 40.5 249.056 40.1288 250.321 39.3864C251.586 38.6439 252.529 37.5871 253.151 36.2159C253.772 34.8447 254.082 33.2121 254.082 31.3182C254.082 29.4394 253.776 27.822 253.162 26.4659C252.548 25.1023 251.632 24.0568 250.412 23.3295C249.192 22.5947 247.673 22.2273 245.855 22.2273H241.355V40.5ZM264.355 19.7273V43H261.537V19.7273H264.355ZM270.96 43H268.006L276.551 19.7273H279.46L288.006 43H285.051L278.097 23.4091H277.915L270.96 43ZM272.051 33.9091H283.96V36.4091H272.051V33.9091Z" fill="white"/>
</svg>
